<?xml version="1.0" encoding="UTF-8" standalone="no"?>
<svg
   xmlns:dc="http://purl.org/dc/elements/1.1/"
   xmlns:cc="http://creativecommons.org/ns#"
   xmlns:rdf="http://www.w3.org/1999/02/22-rdf-syntax-ns#"
   xmlns:svg="http://www.w3.org/2000/svg"
   xmlns="http://www.w3.org/2000/svg"
   xmlns:sodipodi="http://sodipodi.sourceforge.net/DTD/sodipodi-0.dtd"
   xmlns:inkscape="http://www.inkscape.org/namespaces/inkscape"
   width="100%"
   height="100%"
   viewBox="0 0 500 500"
   version="1.1"
   xml:space="preserve"
   style="fill-rule:evenodd;clip-rule:evenodd;stroke-linejoin:round;stroke-miterlimit:2;"
   id="svg6"
   sodipodi:docname="border2.svg"
   inkscape:version="1.0.2-2 (e86c870879, 2021-01-15)"><metadata
     id="metadata12"><rdf:RDF><cc:Work
         rdf:about=""><dc:format>image/svg+xml</dc:format><dc:type
           rdf:resource="http://purl.org/dc/dcmitype/StillImage" /><dc:title></dc:title></cc:Work></rdf:RDF></metadata><defs
     id="defs10" /><sodipodi:namedview
     pagecolor="#ffffff"
     bordercolor="#666666"
     borderopacity="1"
     objecttolerance="10"
     gridtolerance="10"
     guidetolerance="10"
     inkscape:pageopacity="0"
     inkscape:pageshadow="2"
     inkscape:window-width="1913"
     inkscape:window-height="1019"
     id="namedview8"
     showgrid="false"
     inkscape:object-nodes="true"
     inkscape:zoom="0.84536932"
     inkscape:cx="122.76748"
     inkscape:cy="433.50067"
     inkscape:window-x="0"
     inkscape:window-y="0"
     inkscape:window-maximized="0"
     inkscape:current-layer="svg6" /><g
     id="g856"
     style="fill:#ff0000"
     transform="matrix(0.06822044,0,0,-0.07746541,0.55363924,136.36382)"><path
       fill="#020202"
       d="m 155.301,79.085 c 0.182,14.776 0.088,-40.374 0.113,893.165 90.853,-20.471 183.425,-7.268 243.461,-37.064 4.309,-2.4 9.221,-4.211 12.292,-8.27 8.737,-10.306 33.71,-35.298 35.887,-39.471 39.888,-76.506 -46.65,-137.108 -93.287,-91.076 -8.232,7.936 -10.416,38.753 10.3,52.254 6.316,4.581 30.176,6.578 31.956,28.055 0.158,3.471 0.438,7.07 -0.513,10.466 -10.313,4.898 -37.015,6.252 -53.212,-17.544 -32.945,-47.674 18.78,-121.695 82.391,-89.144 30.051,14.983 49.057,46.45 41.162,90.669 4.724,-3.154 9.01,-6.897 13.71,-10.081 52.638,-37.65 123.281,-57.17 189.977,-59.437 10.473,-0.287 20.947,0.098 31.42,0.091 -3.055,-2.435 -30.378,-3.283 -34.461,-3.297 -46.528,0.199 -82.863,12.391 -95.4,-7.44 -16.28,-24.831 12.603,-47.321 13.612,-48.662 0.036,-1.003 -6.205,-32.677 23.475,-56.147 17.164,66.968 39.64,54.033 177.595,115.796 160.765,73.29 252.694,213.728 229.645,397.038 5.041,-5.293 45.66,-96.385 126.993,-138.418 38.391,-19.851 67.251,-20.629 96.087,-20.501 101.233,8.288 119.657,39.668 182.892,85.334 60.247,43.26 75.746,40.043 107.692,30.56 2.095,22.471 -14.229,45.732 -44.55,42.007 3.847,3.781 36.202,21.714 66.311,21.679 77.957,2 102.698,-90.46 64.583,-123.839 -35.09,-31.546 -80.818,10.394 -66.191,45.862 0.634,2.339 3.343,2.852 5.425,3.177 6.519,0.664 11.575,-5.078 18.094,-4.618 3.939,-0.272 8.768,2.158 8.889,6.572 0.551,3.396 -1.298,6.414 -2.739,9.319 10.872,-4.922 21.053,-20.946 37.6,-7.312 -14.627,4.157 -25.883,27.563 -51.71,14.276 -23.599,-11.762 -34.026,-46.756 -7.251,-73.721 21.656,-22.475 58.997,-15.887 77.117,12.013 25.748,37.708 8.502,119.024 -63.036,133.219 -93.71,19.68 -179.93,-94.811 -192.671,-100.772 3.947,13.222 14.84,44.467 1.66,82.942 151.801,-4.274 288.106,73.165 286.26,219.375 313.145,0.152 825.2587,5.1861 872.5757,5.3921 -1.0405,21.0469 -3.371,-1.7977 -2.0994,13.6639 -100.087,0.073 -787.7623,7.241 -873.3063,7.143 -17.413,95.995 -99.726,130.733 -160.76,106.432 -38.803,-14.735 -69.02,-56.459 -64.772,-101.014 4.146,-48.645 44.982,-84.96 95.589,-77.162 34.23,5.164 43.374,25.542 47.877,27.187 -15.231,-38.873 -66.306,-81.418 -148.838,-82.738 -192.357,2.74 -253.186,199.776 -381.064,199.953 -69.416,1.746 -118.308,-58.175 -121.281,-82.708 -4.693,1.411 -9.002,3.765 -13.529,5.599 -91.126,39.725 -153.331,47.458 -162.171,50.745 -50.088,16.012 -103.821,19.249 -155.795,12.33 -0.641,0.158 -1.909,0.49 -2.55,0.649 73.547,27.539 139.087,35.523 155.705,89.786 23.981,79.739 -61.409,118.536 -100.425,78.06 -41.263,-39.573 -6.616,-118.866 47.183,-92.193 -19.775,4.27 -15.229,15.856 -34.703,20.419 9.024,4.933 7.005,9.985 4.55,18.457 -33.487,-3.445 -29.463,46.817 8.994,55.634 26.208,5.868 52.864,-9.854 59.965,-35.17 5.145,-18.276 1.665,-47.069 -18.079,-64.395 C 681.034,1557.108 573.661,1553.202 459.122,1478.618 326.907,1390.913 286.61,1247.809 292.853,1182.7 c 23.379,238.734 238.586,316.596 325.377,268.226 43.321,30.078 100.11,18.488 104.364,18.366 -3.924,3.217 -37.049,21.126 -72.703,30.681 -3.064,0.966 -6.731,0.838 -9.153,3.222 82.528,6.621 197.428,-41.237 272.014,-136.494 129.151,-163.162 90.475,-390.5 -59.098,-487.133 -115.227,-75.341 -275.192,-59.05 -363.784,8.383 -177.723,134.21 -117.24,435.405 121.47,450.77 48.702,1.775 95.147,-6.327 138.259,-34.861 51.62,-33.784 86.597,-95.91 98.946,-149.532 C 892.238,968.72 709.438,861.112 599.312,911.222 c -98.491,44.411 -79.463,178.328 3.675,195.35 65.153,13.444 103.434,-55.77 74.785,-100.071 -3.325,-5.235 -16.875,-16.897 -31.639,-17.151 -27.052,-0.881 -44.296,27.041 -19.302,39.509 -34.454,33.811 -7.726,45.61 12.805,36.823 3.931,-1.645 6.761,-4.927 9.726,-7.855 -15.287,27.661 -79.106,3.54 -60.313,-49.975 10,-29.171 44.819,-37.931 70.612,-24.637 36.752,18.498 43.508,67.235 20.6,101.308 -38.782,57.709 -138.495,36.322 -156.731,-51.129 -21.791,-101.647 94.939,-198.11 238.488,-122.572 109.33,58.099 109.638,171.218 112.197,175.422 6.465,-46.383 4.669,-57.842 27.232,-83.425 13.684,26.209 24.566,80.037 6.384,144.945 -32.235,115.262 -102.565,165.79 -192.497,198.526 -170.972,64.879 -374.112,-59.374 -352.292,-288.003 -6.242,6.012 -57.547,110.698 -142.719,144.613 -80.656,32.027 -174.658,-20.566 -173.897,-105.141 -0.869,-42.766 23.853,-92.077 75.321,-114.49 4.58,-2.286 9.598,-3.516 14.178,-5.803 -2.166,-0.407 -4.369,-0.332 -6.55,-0.181 0.302,-48.172 -0.13,-889.949 0.264,-898.311 m 161.839,892.785 c -42.321,3.413 -119.991,7.531 -159.115,23.603 48.074,0.621 81.915,28.938 78.618,77.275 -9.126,79.309 -110.097,62.979 -104.711,1.079 3.746,-29.665 36.574,-33.716 37.577,-34.023 0.679,1.725 7.765,11.464 1.69,27.217 -4.963,13.96 -17.127,28.512 -8.919,40.814 2.535,3.773 5.788,7.47 10.134,9.108 47.663,5.777 60.718,-46.691 44.24,-75.419 -23.416,-42.329 -105.727,-40.376 -119.968,32.952 -14.127,70.802 49.451,119.745 112.868,110.295 96.747,-15.513 152.976,-145.342 205.77,-230.844 -31.367,11.793 -65.005,15.325 -98.184,17.943 m 857.512,100.705 c -38.394,20.058 -68.315,54.494 -71.45,60.222 3.796,-1.277 51.673,-36.266 114.415,-24.682 -6.253,1.234 -63.165,-2.213 -118.059,48.519 -52.208,47.616 -79.637,125.803 -95.566,158.836 6.567,-2.072 30.216,-14.739 63.761,-6.776 23.045,5.297 43.78,20.713 54.404,41.984 31.493,-17.997 116.176,-68.893 117.177,-69.496 -25.93,-15.95 -44.383,-37.376 -47.968,-67.888 -3.522,-25.55 6.738,-57.444 25.172,-76.241 27.079,-27.925 71.631,-27.911 96.909,-3.245 21.712,20.976 17.555,54.227 0.906,73.88 -26.529,31.526 -81.658,2.608 -63.685,-42.573 6.164,-14.471 15.104,-19.16 22.109,-19.083 -0.219,3.539 0.875,7.432 -1.237,10.609 -3.482,4.982 -16.074,13.427 -20.154,23.384 -8.03,25.417 24.666,48.56 49.809,35.05 19.598,-10.583 28.76,-40.792 20.856,-61.022 -15.197,-40.263 -87.371,-50.707 -114.921,8.323 -22.074,47.412 -2.159,93.01 40.196,112.996 2.1,1.21 1.068,-0.18 36.121,-18.645 34.612,-17.981 71.329,-33.548 110.34,-38.332 44.278,-109.648 -102.494,-207.258 -219.135,-145.82 m 225.751,157.749 c -16.079,33.635 -68.724,80.484 -145.345,57.973 -6.079,1.965 -79.409,48.307 -127.824,75.826 13.013,64.189 -49.627,101.434 -91.219,67.413 -4.218,-3.652 -9.138,-6.633 -12.571,-11.077 -19.619,9.673 -39.343,19.196 -59.316,28.108 17.861,47.851 66.624,76.55 110.597,76.173 81.682,1.059 146.044,-95.925 223.676,-149.615 161.095,-113.437 332.785,-19.467 319.242,78.784 -1.373,9.032 -2.309,18.517 -7.214,26.47 -16.62,29.05 -65.519,23.087 -69.088,-16.517 -1.278,-20.911 6.801,-33.852 18.449,-40.12 17.96,-10.092 27.578,8.155 18.374,20.622 -5.458,7.816 -25.024,12.697 -28.93,27.074 -1.943,7.605 2.955,21.552 23.12,24.81 50.328,8.118 60.062,-77.845 1.283,-97.95 -28.566,-9.599 -64.576,-2.767 -85.062,23.573 -37.806,46.358 -14.382,117.354 42.324,139.663 84.441,32.511 164.106,-50.783 150.989,-149.744 -12.168,-125.618 -157.484,-194.169 -281.485,-181.466 m -394.042,91.974 c -13.236,7.681 -8.206,5.529 -16.585,18.147 -28.648,46.074 -25.501,30.295 -29.677,47.99 -3.154,15.099 -2.694,30.756 -0.143,45.893 0,0 53.971,-25.669 53.974,-25.67 -9.839,-17.607 -15.599,-45.716 2.301,-47.002 -5.079,-10.756 2.249,-29.972 17.83,-36 -4.084,18.618 5.684,28.4 -4.022,38.038 6.244,1.465 11.332,8.659 8.994,17.295 -1.283,6.882 -5.252,12.737 -8.345,18.879 9.36,-3.63 83.076,-43.594 87.039,-46.972 -14.213,-36.257 -71.4,-52.811 -111.366,-30.598 m 21.339,95.657 c 4.065,16.431 38.481,32.886 66.953,18.268 22.431,-11.37 33.738,-39.474 29.669,-64.531 -0.309,-1.796 -1.154,-3.471 -1.026,-5.312 -11.793,7.689 -87.283,48.528 -95.596,51.575 z"
       id="path852"
       style="fill:#ff0000"
       sodipodi:nodetypes="ccccccccccccccccccccccccccccccccccccccccccccccccccccccccccccccccccccccccccccccccccccccccccccccccccccccccccccccccccccccccccccccccccccccccccccccccccccccccccccccccccccccccccc" /><path
       fill="#020202"
       d="m 1452.914,1345.473 c 43.565,5.721 79.482,28.396 87.288,36.559 -6.708,-1.675 -12.941,-4.776 -19.566,-6.708 -92.785,-32.07 -129.334,30.822 -167.235,48.73 -46.843,22.434 -68.908,-19.994 -16.11,-53.952 28.278,-17.714 71.697,-30.699 115.623,-24.629 z"
       id="path854"
       style="fill:#ff0000" /></g><g
     id="g890"
     style="fill:#ff0000"
     transform="matrix(0.06822044,0,0,0.07746541,-0.07710307,363.63618)"><path
       fill="#020202"
       d="m 137.79289,91.095314 c 14.63445,0.474511 0.62977,-12.507059 17.50811,-12.010314 0.182,14.776 0.088,-40.374 0.113,893.165 90.853,-20.471 183.425,-7.268 243.461,-37.064 4.309,-2.4 9.221,-4.211 12.292,-8.27 8.737,-10.306 33.71,-35.298 35.887,-39.471 39.888,-76.506 -46.65,-137.108 -93.287,-91.076 -8.232,7.936 -10.416,38.753 10.3,52.254 6.316,4.581 30.176,6.578 31.956,28.055 0.158,3.471 0.438,7.07 -0.513,10.466 -10.313,4.898 -37.015,6.252 -53.212,-17.544 -32.945,-47.674 18.78,-121.695 82.391,-89.144 30.051,14.983 49.057,46.45 41.162,90.669 4.724,-3.154 9.01,-6.897 13.71,-10.081 52.638,-37.65 123.281,-57.17 189.977,-59.437 10.473,-0.287 20.947,0.098 31.42,0.091 -3.055,-2.435 -30.378,-3.283 -34.461,-3.297 -46.528,0.199 -82.863,12.391 -95.4,-7.44 -16.28,-24.831 12.603,-47.321 13.612,-48.662 0.036,-1.003 -6.205,-32.677 23.475,-56.147 17.164,66.968 39.64,54.033 177.595,115.796 160.765,73.29 252.694,213.728 229.645,397.038 5.041,-5.293 45.66,-96.385 126.993,-138.418 38.391,-19.851 67.251,-20.629 96.087,-20.501 101.233,8.288 119.657,39.668 182.892,85.334 60.247,43.26 75.746,40.043 107.692,30.56 2.095,22.471 -14.229,45.732 -44.55,42.007 3.847,3.781 36.202,21.714 66.311,21.679 77.957,2 102.698,-90.46 64.583,-123.839 -35.09,-31.546 -80.818,10.394 -66.191,45.862 0.634,2.339 3.343,2.852 5.425,3.177 6.519,0.664 11.575,-5.078 18.094,-4.618 3.939,-0.272 8.768,2.158 8.889,6.572 0.551,3.396 -1.298,6.414 -2.739,9.319 10.872,-4.922 21.053,-20.946 37.6,-7.312 -14.627,4.157 -25.883,27.563 -51.71,14.276 -23.599,-11.762 -34.026,-46.756 -7.251,-73.721 21.656,-22.475 58.997,-15.887 77.117,12.013 25.748,37.708 8.502,119.024 -63.036,133.219 -93.71,19.68 -179.93,-94.811 -192.671,-100.772 3.947,13.222 14.84,44.467 1.66,82.942 151.801,-4.274 288.106,73.165 286.26,219.375 313.145,0.152 843.682,-0.063 890.999,0.143 0.068,26.071 -0.4116,7.7822 0.068,26.071 -100.087,0.073 -808.353,0.083 -893.897,-0.015 -17.413,95.995 -99.726,130.733 -160.76,106.432 -38.803,-14.735 -69.02,-56.459 -64.772,-101.014 4.146,-48.645 44.982,-84.96 95.589,-77.162 34.23,5.164 43.374,25.542 47.877,27.187 -15.231,-38.873 -66.306,-81.418 -148.838,-82.738 -192.357,2.74 -253.186,199.776 -381.064,199.953 -69.416,1.746 -118.308,-58.175 -121.281,-82.708 -4.693,1.411 -9.002,3.765 -13.529,5.599 -91.126,39.725 -153.331,47.458 -162.171,50.745 -50.088,16.012 -103.821,19.249 -155.795,12.33 -0.641,0.158 -1.909,0.49 -2.55,0.649 73.547,27.539 139.087,35.523 155.705,89.786 23.981,79.739 -61.409,118.536 -100.425,78.06 -41.263,-39.573 -6.616,-118.866 47.183,-92.193 -19.775,4.27 -15.229,15.856 -34.703,20.419 9.024,4.933 7.005,9.985 4.55,18.457 -33.487,-3.445 -29.463,46.817 8.994,55.634 26.208,5.868 52.864,-9.854 59.965,-35.17 5.145,-18.276 1.665,-47.069 -18.079,-64.395 C 681.034,1557.108 573.661,1553.202 459.122,1478.618 326.907,1390.913 286.61,1247.809 292.853,1182.7 c 23.379,238.734 238.586,316.596 325.377,268.226 43.321,30.078 100.11,18.488 104.364,18.366 -3.924,3.217 -37.049,21.126 -72.703,30.681 -3.064,0.966 -6.731,0.838 -9.153,3.222 82.528,6.621 197.428,-41.237 272.014,-136.494 129.151,-163.162 90.475,-390.5 -59.098,-487.133 -115.227,-75.341 -275.192,-59.05 -363.784,8.383 -177.723,134.21 -117.24,435.405 121.47,450.77 48.702,1.775 95.147,-6.327 138.259,-34.861 51.62,-33.784 86.597,-95.91 98.946,-149.532 C 892.238,968.72 709.438,861.112 599.312,911.222 c -98.491,44.411 -79.463,178.328 3.675,195.35 65.153,13.444 103.434,-55.77 74.785,-100.071 -3.325,-5.235 -16.875,-16.897 -31.639,-17.151 -27.052,-0.881 -44.296,27.041 -19.302,39.509 -34.454,33.811 -7.726,45.61 12.805,36.823 3.931,-1.645 6.761,-4.927 9.726,-7.855 -15.287,27.661 -79.106,3.54 -60.313,-49.975 10,-29.171 44.819,-37.931 70.612,-24.637 36.752,18.498 43.508,67.235 20.6,101.308 -38.782,57.709 -138.495,36.322 -156.731,-51.129 -21.791,-101.647 94.939,-198.11 238.488,-122.572 109.33,58.099 109.638,171.218 112.197,175.422 6.465,-46.383 4.669,-57.842 27.232,-83.425 13.684,26.209 24.566,80.037 6.384,144.945 -32.235,115.262 -102.565,165.79 -192.497,198.526 -170.972,64.879 -374.112,-59.374 -352.292,-288.003 -6.242,6.012 -57.547,110.698 -142.719,144.613 -80.656,32.027 -174.658,-20.566 -173.897,-105.141 -0.869,-42.766 23.853,-92.077 75.321,-114.49 4.58,-2.286 9.598,-3.516 14.178,-5.803 -2.166,-0.407 -4.369,-0.332 -6.55,-0.181 0.302,-48.172 -0.13,-889.949 0.264,-898.311 m 161.839,892.785 c -42.321,3.413 -119.991,7.531 -159.115,23.603 48.074,0.621 81.915,28.938 78.618,77.275 -9.126,79.309 -110.097,62.979 -104.711,1.079 3.746,-29.665 36.574,-33.716 37.577,-34.023 0.679,1.725 7.765,11.464 1.69,27.217 -4.963,13.96 -17.127,28.512 -8.919,40.814 2.535,3.773 5.788,7.47 10.134,9.108 47.663,5.777 60.718,-46.691 44.24,-75.419 -23.416,-42.329 -105.727,-40.376 -119.968,32.952 -14.127,70.802 49.451,119.745 112.868,110.295 96.747,-15.513 152.976,-145.342 205.77,-230.844 -31.367,11.793 -65.005,15.325 -98.184,17.943 m 857.512,100.705 c -38.394,20.058 -68.315,54.494 -71.45,60.222 3.796,-1.277 51.673,-36.266 114.415,-24.682 -6.253,1.234 -63.165,-2.213 -118.059,48.519 -52.208,47.616 -79.637,125.803 -95.566,158.836 6.567,-2.072 30.216,-14.739 63.761,-6.776 23.045,5.297 43.78,20.713 54.404,41.984 31.493,-17.997 116.176,-68.893 117.177,-69.496 -25.93,-15.95 -44.383,-37.376 -47.968,-67.888 -3.522,-25.55 6.738,-57.444 25.172,-76.241 27.079,-27.925 71.631,-27.911 96.909,-3.245 21.712,20.976 17.555,54.227 0.906,73.88 -26.529,31.526 -81.658,2.608 -63.685,-42.573 6.164,-14.471 15.104,-19.16 22.109,-19.083 -0.219,3.539 0.875,7.432 -1.237,10.609 -3.482,4.982 -16.074,13.427 -20.154,23.384 -8.03,25.417 24.666,48.56 49.809,35.05 19.598,-10.583 28.76,-40.792 20.856,-61.022 -15.197,-40.263 -87.371,-50.707 -114.921,8.323 -22.074,47.412 -2.159,93.01 40.196,112.996 2.1,1.21 1.068,-0.18 36.121,-18.645 34.612,-17.981 71.329,-33.548 110.34,-38.332 44.278,-109.648 -102.494,-207.258 -219.135,-145.82 m 225.751,157.749 c -16.079,33.635 -68.724,80.484 -145.345,57.973 -6.079,1.965 -79.409,48.307 -127.824,75.826 13.013,64.189 -49.627,101.434 -91.219,67.413 -4.218,-3.652 -9.138,-6.633 -12.571,-11.077 -19.619,9.673 -39.343,19.196 -59.316,28.108 17.861,47.851 66.624,76.55 110.597,76.173 81.682,1.059 146.044,-95.925 223.676,-149.615 161.095,-113.437 332.785,-19.467 319.242,78.784 -1.373,9.032 -2.309,18.517 -7.214,26.47 -16.62,29.05 -65.519,23.087 -69.088,-16.517 -1.278,-20.911 6.801,-33.852 18.449,-40.12 17.96,-10.092 27.578,8.155 18.374,20.622 -5.458,7.816 -25.024,12.697 -28.93,27.074 -1.943,7.605 2.955,21.552 23.12,24.81 50.328,8.118 60.062,-77.845 1.283,-97.95 -28.566,-9.599 -64.576,-2.767 -85.062,23.573 -37.806,46.358 -14.382,117.354 42.324,139.663 84.441,32.511 164.106,-50.783 150.989,-149.744 -12.168,-125.618 -157.484,-194.169 -281.485,-181.466 m -394.042,91.974 c -13.236,7.681 -8.206,5.529 -16.585,18.147 -28.648,46.074 -25.501,30.295 -29.677,47.99 -3.154,15.099 -2.694,30.756 -0.143,45.893 0,0 53.971,-25.669 53.974,-25.67 -9.839,-17.607 -15.599,-45.716 2.301,-47.002 -5.079,-10.756 2.249,-29.972 17.83,-36 -4.084,18.618 5.684,28.4 -4.022,38.038 6.244,1.465 11.332,8.659 8.994,17.295 -1.283,6.882 -5.252,12.737 -8.345,18.879 9.36,-3.63 83.076,-43.594 87.039,-46.972 -14.213,-36.257 -71.4,-52.811 -111.366,-30.598 m 21.339,95.657 c 4.065,16.431 38.481,32.886 66.953,18.268 22.431,-11.37 33.738,-39.474 29.669,-64.531 -0.309,-1.796 -1.154,-3.471 -1.026,-5.312 -11.793,7.689 -87.283,48.528 -95.596,51.575 z"
       id="path886"
       style="fill:#ff0000"
       sodipodi:nodetypes="cccccccccccccccccccccccccccccccccccccccccccccccccccccccccccccccccccccccccccccccccccccccccccccccccccccccccccccccccccccccccccccccccccccccccccccccccccccccccccccccccccccccccccc" /><path
       fill="#020202"
       d="m 1452.914,1345.473 c 43.565,5.721 79.482,28.396 87.288,36.559 -6.708,-1.675 -12.941,-4.776 -19.566,-6.708 -92.785,-32.07 -129.334,30.822 -167.235,48.73 -46.843,22.434 -68.908,-19.994 -16.11,-53.952 28.278,-17.714 71.697,-30.699 115.623,-24.629 z"
       id="path888"
       style="fill:#ff0000" /></g><g
     id="g896"
     style="fill:#ff0000"
     transform="matrix(-0.06822044,0,0,-0.07746541,495.3841,136.36382)"><path
       fill="#020202"
       d="m 155.301,79.085 c 0.182,14.776 0.088,-40.374 0.113,893.165 90.853,-20.471 183.425,-7.268 243.461,-37.064 4.309,-2.4 9.221,-4.211 12.292,-8.27 8.737,-10.306 33.71,-35.298 35.887,-39.471 39.888,-76.506 -46.65,-137.108 -93.287,-91.076 -8.232,7.936 -10.416,38.753 10.3,52.254 6.316,4.581 30.176,6.578 31.956,28.055 0.158,3.471 0.438,7.07 -0.513,10.466 -10.313,4.898 -37.015,6.252 -53.212,-17.544 -32.945,-47.674 18.78,-121.695 82.391,-89.144 30.051,14.983 49.057,46.45 41.162,90.669 4.724,-3.154 9.01,-6.897 13.71,-10.081 52.638,-37.65 123.281,-57.17 189.977,-59.437 10.473,-0.287 20.947,0.098 31.42,0.091 -3.055,-2.435 -30.378,-3.283 -34.461,-3.297 -46.528,0.199 -82.863,12.391 -95.4,-7.44 -16.28,-24.831 12.603,-47.321 13.612,-48.662 0.036,-1.003 -6.205,-32.677 23.475,-56.147 17.164,66.968 39.64,54.033 177.595,115.796 160.765,73.29 252.694,213.728 229.645,397.038 5.041,-5.293 45.66,-96.385 126.993,-138.418 38.391,-19.851 67.251,-20.629 96.087,-20.501 101.233,8.288 119.657,39.668 182.892,85.334 60.247,43.26 75.746,40.043 107.692,30.56 2.095,22.471 -14.229,45.732 -44.55,42.007 3.847,3.781 36.202,21.714 66.311,21.679 77.957,2 102.698,-90.46 64.583,-123.839 -35.09,-31.546 -80.818,10.394 -66.191,45.862 0.634,2.339 3.343,2.852 5.425,3.177 6.519,0.664 11.575,-5.078 18.094,-4.618 3.939,-0.272 8.768,2.158 8.889,6.572 0.551,3.396 -1.298,6.414 -2.739,9.319 10.872,-4.922 21.053,-20.946 37.6,-7.312 -14.627,4.157 -25.883,27.563 -51.71,14.276 -23.599,-11.762 -34.026,-46.756 -7.251,-73.721 21.656,-22.475 58.997,-15.887 77.117,12.013 25.748,37.708 8.502,119.024 -63.036,133.219 -93.71,19.68 -179.93,-94.811 -192.671,-100.772 3.947,13.222 14.84,44.467 1.66,82.942 151.801,-4.274 288.106,73.165 286.26,219.375 313.145,0.152 825.2587,5.1861 872.5757,5.3921 -1.0405,21.0469 -3.371,-1.7977 -2.0994,13.6639 -100.087,0.073 -787.7623,7.241 -873.3063,7.143 -17.413,95.995 -99.726,130.733 -160.76,106.432 -38.803,-14.735 -69.02,-56.459 -64.772,-101.014 4.146,-48.645 44.982,-84.96 95.589,-77.162 34.23,5.164 43.374,25.542 47.877,27.187 -15.231,-38.873 -66.306,-81.418 -148.838,-82.738 -192.357,2.74 -253.186,199.776 -381.064,199.953 -69.416,1.746 -118.308,-58.175 -121.281,-82.708 -4.693,1.411 -9.002,3.765 -13.529,5.599 -91.126,39.725 -153.331,47.458 -162.171,50.745 -50.088,16.012 -103.821,19.249 -155.795,12.33 -0.641,0.158 -1.909,0.49 -2.55,0.649 73.547,27.539 139.087,35.523 155.705,89.786 23.981,79.739 -61.409,118.536 -100.425,78.06 -41.263,-39.573 -6.616,-118.866 47.183,-92.193 -19.775,4.27 -15.229,15.856 -34.703,20.419 9.024,4.933 7.005,9.985 4.55,18.457 -33.487,-3.445 -29.463,46.817 8.994,55.634 26.208,5.868 52.864,-9.854 59.965,-35.17 5.145,-18.276 1.665,-47.069 -18.079,-64.395 C 681.034,1557.108 573.661,1553.202 459.122,1478.618 326.907,1390.913 286.61,1247.809 292.853,1182.7 c 23.379,238.734 238.586,316.596 325.377,268.226 43.321,30.078 100.11,18.488 104.364,18.366 -3.924,3.217 -37.049,21.126 -72.703,30.681 -3.064,0.966 -6.731,0.838 -9.153,3.222 82.528,6.621 197.428,-41.237 272.014,-136.494 129.151,-163.162 90.475,-390.5 -59.098,-487.133 -115.227,-75.341 -275.192,-59.05 -363.784,8.383 -177.723,134.21 -117.24,435.405 121.47,450.77 48.702,1.775 95.147,-6.327 138.259,-34.861 51.62,-33.784 86.597,-95.91 98.946,-149.532 C 892.238,968.72 709.438,861.112 599.312,911.222 c -98.491,44.411 -79.463,178.328 3.675,195.35 65.153,13.444 103.434,-55.77 74.785,-100.071 -3.325,-5.235 -16.875,-16.897 -31.639,-17.151 -27.052,-0.881 -44.296,27.041 -19.302,39.509 -34.454,33.811 -7.726,45.61 12.805,36.823 3.931,-1.645 6.761,-4.927 9.726,-7.855 -15.287,27.661 -79.106,3.54 -60.313,-49.975 10,-29.171 44.819,-37.931 70.612,-24.637 36.752,18.498 43.508,67.235 20.6,101.308 -38.782,57.709 -138.495,36.322 -156.731,-51.129 -21.791,-101.647 94.939,-198.11 238.488,-122.572 109.33,58.099 109.638,171.218 112.197,175.422 6.465,-46.383 4.669,-57.842 27.232,-83.425 13.684,26.209 24.566,80.037 6.384,144.945 -32.235,115.262 -102.565,165.79 -192.497,198.526 -170.972,64.879 -374.112,-59.374 -352.292,-288.003 -6.242,6.012 -57.547,110.698 -142.719,144.613 -80.656,32.027 -174.658,-20.566 -173.897,-105.141 -0.869,-42.766 23.853,-92.077 75.321,-114.49 4.58,-2.286 9.598,-3.516 14.178,-5.803 -2.166,-0.407 -4.369,-0.332 -6.55,-0.181 0.302,-48.172 -0.13,-889.949 0.264,-898.311 m 161.839,892.785 c -42.321,3.413 -119.991,7.531 -159.115,23.603 48.074,0.621 81.915,28.938 78.618,77.275 -9.126,79.309 -110.097,62.979 -104.711,1.079 3.746,-29.665 36.574,-33.716 37.577,-34.023 0.679,1.725 7.765,11.464 1.69,27.217 -4.963,13.96 -17.127,28.512 -8.919,40.814 2.535,3.773 5.788,7.47 10.134,9.108 47.663,5.777 60.718,-46.691 44.24,-75.419 -23.416,-42.329 -105.727,-40.376 -119.968,32.952 -14.127,70.802 49.451,119.745 112.868,110.295 96.747,-15.513 152.976,-145.342 205.77,-230.844 -31.367,11.793 -65.005,15.325 -98.184,17.943 m 857.512,100.705 c -38.394,20.058 -68.315,54.494 -71.45,60.222 3.796,-1.277 51.673,-36.266 114.415,-24.682 -6.253,1.234 -63.165,-2.213 -118.059,48.519 -52.208,47.616 -79.637,125.803 -95.566,158.836 6.567,-2.072 30.216,-14.739 63.761,-6.776 23.045,5.297 43.78,20.713 54.404,41.984 31.493,-17.997 116.176,-68.893 117.177,-69.496 -25.93,-15.95 -44.383,-37.376 -47.968,-67.888 -3.522,-25.55 6.738,-57.444 25.172,-76.241 27.079,-27.925 71.631,-27.911 96.909,-3.245 21.712,20.976 17.555,54.227 0.906,73.88 -26.529,31.526 -81.658,2.608 -63.685,-42.573 6.164,-14.471 15.104,-19.16 22.109,-19.083 -0.219,3.539 0.875,7.432 -1.237,10.609 -3.482,4.982 -16.074,13.427 -20.154,23.384 -8.03,25.417 24.666,48.56 49.809,35.05 19.598,-10.583 28.76,-40.792 20.856,-61.022 -15.197,-40.263 -87.371,-50.707 -114.921,8.323 -22.074,47.412 -2.159,93.01 40.196,112.996 2.1,1.21 1.068,-0.18 36.121,-18.645 34.612,-17.981 71.329,-33.548 110.34,-38.332 44.278,-109.648 -102.494,-207.258 -219.135,-145.82 m 225.751,157.749 c -16.079,33.635 -68.724,80.484 -145.345,57.973 -6.079,1.965 -79.409,48.307 -127.824,75.826 13.013,64.189 -49.627,101.434 -91.219,67.413 -4.218,-3.652 -9.138,-6.633 -12.571,-11.077 -19.619,9.673 -39.343,19.196 -59.316,28.108 17.861,47.851 66.624,76.55 110.597,76.173 81.682,1.059 146.044,-95.925 223.676,-149.615 161.095,-113.437 332.785,-19.467 319.242,78.784 -1.373,9.032 -2.309,18.517 -7.214,26.47 -16.62,29.05 -65.519,23.087 -69.088,-16.517 -1.278,-20.911 6.801,-33.852 18.449,-40.12 17.96,-10.092 27.578,8.155 18.374,20.622 -5.458,7.816 -25.024,12.697 -28.93,27.074 -1.943,7.605 2.955,21.552 23.12,24.81 50.328,8.118 60.062,-77.845 1.283,-97.95 -28.566,-9.599 -64.576,-2.767 -85.062,23.573 -37.806,46.358 -14.382,117.354 42.324,139.663 84.441,32.511 164.106,-50.783 150.989,-149.744 -12.168,-125.618 -157.484,-194.169 -281.485,-181.466 m -394.042,91.974 c -13.236,7.681 -8.206,5.529 -16.585,18.147 -28.648,46.074 -25.501,30.295 -29.677,47.99 -3.154,15.099 -2.694,30.756 -0.143,45.893 0,0 53.971,-25.669 53.974,-25.67 -9.839,-17.607 -15.599,-45.716 2.301,-47.002 -5.079,-10.756 2.249,-29.972 17.83,-36 -4.084,18.618 5.684,28.4 -4.022,38.038 6.244,1.465 11.332,8.659 8.994,17.295 -1.283,6.882 -5.252,12.737 -8.345,18.879 9.36,-3.63 83.076,-43.594 87.039,-46.972 -14.213,-36.257 -71.4,-52.811 -111.366,-30.598 m 21.339,95.657 c 4.065,16.431 38.481,32.886 66.953,18.268 22.431,-11.37 33.738,-39.474 29.669,-64.531 -0.309,-1.796 -1.154,-3.471 -1.026,-5.312 -11.793,7.689 -87.283,48.528 -95.596,51.575 z"
       id="path892"
       style="fill:#ff0000"
       sodipodi:nodetypes="ccccccccccccccccccccccccccccccccccccccccccccccccccccccccccccccccccccccccccccccccccccccccccccccccccccccccccccccccccccccccccccccccccccccccccccccccccccccccccccccccccccccccccc" /><path
       fill="#020202"
       d="m 1452.914,1345.473 c 43.565,5.721 79.482,28.396 87.288,36.559 -6.708,-1.675 -12.941,-4.776 -19.566,-6.708 -92.785,-32.07 -129.334,30.822 -167.235,48.73 -46.843,22.434 -68.908,-19.994 -16.11,-53.952 28.278,-17.714 71.697,-30.699 115.623,-24.629 z"
       id="path894"
       style="fill:#ff0000" /></g><g
     id="g902"
     style="fill:#ff0000"
     transform="matrix(-0.06822044,0,0,0.07746541,496.01484,363.63618)"><path
       fill="#020202"
       d="m 137.79289,91.095314 c 14.63445,0.474511 0.62977,-12.507059 17.50811,-12.010314 0.182,14.776 0.088,-40.374 0.113,893.165 90.853,-20.471 183.425,-7.268 243.461,-37.064 4.309,-2.4 9.221,-4.211 12.292,-8.27 8.737,-10.306 33.71,-35.298 35.887,-39.471 39.888,-76.506 -46.65,-137.108 -93.287,-91.076 -8.232,7.936 -10.416,38.753 10.3,52.254 6.316,4.581 30.176,6.578 31.956,28.055 0.158,3.471 0.438,7.07 -0.513,10.466 -10.313,4.898 -37.015,6.252 -53.212,-17.544 -32.945,-47.674 18.78,-121.695 82.391,-89.144 30.051,14.983 49.057,46.45 41.162,90.669 4.724,-3.154 9.01,-6.897 13.71,-10.081 52.638,-37.65 123.281,-57.17 189.977,-59.437 10.473,-0.287 20.947,0.098 31.42,0.091 -3.055,-2.435 -30.378,-3.283 -34.461,-3.297 -46.528,0.199 -82.863,12.391 -95.4,-7.44 -16.28,-24.831 12.603,-47.321 13.612,-48.662 0.036,-1.003 -6.205,-32.677 23.475,-56.147 17.164,66.968 39.64,54.033 177.595,115.796 160.765,73.29 252.694,213.728 229.645,397.038 5.041,-5.293 45.66,-96.385 126.993,-138.418 38.391,-19.851 67.251,-20.629 96.087,-20.501 101.233,8.288 119.657,39.668 182.892,85.334 60.247,43.26 75.746,40.043 107.692,30.56 2.095,22.471 -14.229,45.732 -44.55,42.007 3.847,3.781 36.202,21.714 66.311,21.679 77.957,2 102.698,-90.46 64.583,-123.839 -35.09,-31.546 -80.818,10.394 -66.191,45.862 0.634,2.339 3.343,2.852 5.425,3.177 6.519,0.664 11.575,-5.078 18.094,-4.618 3.939,-0.272 8.768,2.158 8.889,6.572 0.551,3.396 -1.298,6.414 -2.739,9.319 10.872,-4.922 21.053,-20.946 37.6,-7.312 -14.627,4.157 -25.883,27.563 -51.71,14.276 -23.599,-11.762 -34.026,-46.756 -7.251,-73.721 21.656,-22.475 58.997,-15.887 77.117,12.013 25.748,37.708 8.502,119.024 -63.036,133.219 -93.71,19.68 -179.93,-94.811 -192.671,-100.772 3.947,13.222 14.84,44.467 1.66,82.942 151.801,-4.274 288.106,73.165 286.26,219.375 313.145,0.152 843.682,-0.063 890.999,0.143 0.068,26.071 -0.4116,7.7822 0.068,26.071 -100.087,0.073 -808.353,0.083 -893.897,-0.015 -17.413,95.995 -99.726,130.733 -160.76,106.432 -38.803,-14.735 -69.02,-56.459 -64.772,-101.014 4.146,-48.645 44.982,-84.96 95.589,-77.162 34.23,5.164 43.374,25.542 47.877,27.187 -15.231,-38.873 -66.306,-81.418 -148.838,-82.738 -192.357,2.74 -253.186,199.776 -381.064,199.953 -69.416,1.746 -118.308,-58.175 -121.281,-82.708 -4.693,1.411 -9.002,3.765 -13.529,5.599 -91.126,39.725 -153.331,47.458 -162.171,50.745 -50.088,16.012 -103.821,19.249 -155.795,12.33 -0.641,0.158 -1.909,0.49 -2.55,0.649 73.547,27.539 139.087,35.523 155.705,89.786 23.981,79.739 -61.409,118.536 -100.425,78.06 -41.263,-39.573 -6.616,-118.866 47.183,-92.193 -19.775,4.27 -15.229,15.856 -34.703,20.419 9.024,4.933 7.005,9.985 4.55,18.457 -33.487,-3.445 -29.463,46.817 8.994,55.634 26.208,5.868 52.864,-9.854 59.965,-35.17 5.145,-18.276 1.665,-47.069 -18.079,-64.395 C 681.034,1557.108 573.661,1553.202 459.122,1478.618 326.907,1390.913 286.61,1247.809 292.853,1182.7 c 23.379,238.734 238.586,316.596 325.377,268.226 43.321,30.078 100.11,18.488 104.364,18.366 -3.924,3.217 -37.049,21.126 -72.703,30.681 -3.064,0.966 -6.731,0.838 -9.153,3.222 82.528,6.621 197.428,-41.237 272.014,-136.494 129.151,-163.162 90.475,-390.5 -59.098,-487.133 -115.227,-75.341 -275.192,-59.05 -363.784,8.383 -177.723,134.21 -117.24,435.405 121.47,450.77 48.702,1.775 95.147,-6.327 138.259,-34.861 51.62,-33.784 86.597,-95.91 98.946,-149.532 C 892.238,968.72 709.438,861.112 599.312,911.222 c -98.491,44.411 -79.463,178.328 3.675,195.35 65.153,13.444 103.434,-55.77 74.785,-100.071 -3.325,-5.235 -16.875,-16.897 -31.639,-17.151 -27.052,-0.881 -44.296,27.041 -19.302,39.509 -34.454,33.811 -7.726,45.61 12.805,36.823 3.931,-1.645 6.761,-4.927 9.726,-7.855 -15.287,27.661 -79.106,3.54 -60.313,-49.975 10,-29.171 44.819,-37.931 70.612,-24.637 36.752,18.498 43.508,67.235 20.6,101.308 -38.782,57.709 -138.495,36.322 -156.731,-51.129 -21.791,-101.647 94.939,-198.11 238.488,-122.572 109.33,58.099 109.638,171.218 112.197,175.422 6.465,-46.383 4.669,-57.842 27.232,-83.425 13.684,26.209 24.566,80.037 6.384,144.945 -32.235,115.262 -102.565,165.79 -192.497,198.526 -170.972,64.879 -374.112,-59.374 -352.292,-288.003 -6.242,6.012 -57.547,110.698 -142.719,144.613 -80.656,32.027 -174.658,-20.566 -173.897,-105.141 -0.869,-42.766 23.853,-92.077 75.321,-114.49 4.58,-2.286 9.598,-3.516 14.178,-5.803 -2.166,-0.407 -4.369,-0.332 -6.55,-0.181 0.302,-48.172 -0.13,-889.949 0.264,-898.311 m 161.839,892.785 c -42.321,3.413 -119.991,7.531 -159.115,23.603 48.074,0.621 81.915,28.938 78.618,77.275 -9.126,79.309 -110.097,62.979 -104.711,1.079 3.746,-29.665 36.574,-33.716 37.577,-34.023 0.679,1.725 7.765,11.464 1.69,27.217 -4.963,13.96 -17.127,28.512 -8.919,40.814 2.535,3.773 5.788,7.47 10.134,9.108 47.663,5.777 60.718,-46.691 44.24,-75.419 -23.416,-42.329 -105.727,-40.376 -119.968,32.952 -14.127,70.802 49.451,119.745 112.868,110.295 96.747,-15.513 152.976,-145.342 205.77,-230.844 -31.367,11.793 -65.005,15.325 -98.184,17.943 m 857.512,100.705 c -38.394,20.058 -68.315,54.494 -71.45,60.222 3.796,-1.277 51.673,-36.266 114.415,-24.682 -6.253,1.234 -63.165,-2.213 -118.059,48.519 -52.208,47.616 -79.637,125.803 -95.566,158.836 6.567,-2.072 30.216,-14.739 63.761,-6.776 23.045,5.297 43.78,20.713 54.404,41.984 31.493,-17.997 116.176,-68.893 117.177,-69.496 -25.93,-15.95 -44.383,-37.376 -47.968,-67.888 -3.522,-25.55 6.738,-57.444 25.172,-76.241 27.079,-27.925 71.631,-27.911 96.909,-3.245 21.712,20.976 17.555,54.227 0.906,73.88 -26.529,31.526 -81.658,2.608 -63.685,-42.573 6.164,-14.471 15.104,-19.16 22.109,-19.083 -0.219,3.539 0.875,7.432 -1.237,10.609 -3.482,4.982 -16.074,13.427 -20.154,23.384 -8.03,25.417 24.666,48.56 49.809,35.05 19.598,-10.583 28.76,-40.792 20.856,-61.022 -15.197,-40.263 -87.371,-50.707 -114.921,8.323 -22.074,47.412 -2.159,93.01 40.196,112.996 2.1,1.21 1.068,-0.18 36.121,-18.645 34.612,-17.981 71.329,-33.548 110.34,-38.332 44.278,-109.648 -102.494,-207.258 -219.135,-145.82 m 225.751,157.749 c -16.079,33.635 -68.724,80.484 -145.345,57.973 -6.079,1.965 -79.409,48.307 -127.824,75.826 13.013,64.189 -49.627,101.434 -91.219,67.413 -4.218,-3.652 -9.138,-6.633 -12.571,-11.077 -19.619,9.673 -39.343,19.196 -59.316,28.108 17.861,47.851 66.624,76.55 110.597,76.173 81.682,1.059 146.044,-95.925 223.676,-149.615 161.095,-113.437 332.785,-19.467 319.242,78.784 -1.373,9.032 -2.309,18.517 -7.214,26.47 -16.62,29.05 -65.519,23.087 -69.088,-16.517 -1.278,-20.911 6.801,-33.852 18.449,-40.12 17.96,-10.092 27.578,8.155 18.374,20.622 -5.458,7.816 -25.024,12.697 -28.93,27.074 -1.943,7.605 2.955,21.552 23.12,24.81 50.328,8.118 60.062,-77.845 1.283,-97.95 -28.566,-9.599 -64.576,-2.767 -85.062,23.573 -37.806,46.358 -14.382,117.354 42.324,139.663 84.441,32.511 164.106,-50.783 150.989,-149.744 -12.168,-125.618 -157.484,-194.169 -281.485,-181.466 m -394.042,91.974 c -13.236,7.681 -8.206,5.529 -16.585,18.147 -28.648,46.074 -25.501,30.295 -29.677,47.99 -3.154,15.099 -2.694,30.756 -0.143,45.893 0,0 53.971,-25.669 53.974,-25.67 -9.839,-17.607 -15.599,-45.716 2.301,-47.002 -5.079,-10.756 2.249,-29.972 17.83,-36 -4.084,18.618 5.684,28.4 -4.022,38.038 6.244,1.465 11.332,8.659 8.994,17.295 -1.283,6.882 -5.252,12.737 -8.345,18.879 9.36,-3.63 83.076,-43.594 87.039,-46.972 -14.213,-36.257 -71.4,-52.811 -111.366,-30.598 m 21.339,95.657 c 4.065,16.431 38.481,32.886 66.953,18.268 22.431,-11.37 33.738,-39.474 29.669,-64.531 -0.309,-1.796 -1.154,-3.471 -1.026,-5.312 -11.793,7.689 -87.283,48.528 -95.596,51.575 z"
       id="path898"
       style="fill:#ff0000"
       sodipodi:nodetypes="cccccccccccccccccccccccccccccccccccccccccccccccccccccccccccccccccccccccccccccccccccccccccccccccccccccccccccccccccccccccccccccccccccccccccccccccccccccccccccccccccccccccccccc" /><path
       fill="#020202"
       d="m 1452.914,1345.473 c 43.565,5.721 79.482,28.396 87.288,36.559 -6.708,-1.675 -12.941,-4.776 -19.566,-6.708 -92.785,-32.07 -129.334,30.822 -167.235,48.73 -46.843,22.434 -68.908,-19.994 -16.11,-53.952 28.278,-17.714 71.697,-30.699 115.623,-24.629 z"
       id="path900"
       style="fill:#ff0000" /></g><rect
     style="fill:#ff0000;fill-opacity:1;stroke-width:0.766946"
     id="rect904"
     width="3.6592054"
     height="379.57324"
     x="8.7489166"
     y="60.212318"
     ry="0.70291334" /><rect
     style="fill:#ff0000;fill-opacity:1;stroke-width:0.767052"
     id="rect906"
     width="3.6592054"
     height="379.6778"
     x="483.65573"
     y="60.195717"
     ry="0" /><rect
     style="fill:#ff0000;fill-opacity:1;stroke-width:1.31528"
     id="rect908"
     width="269.69473"
     height="3.5"
     x="113.1676"
     y="474.88736"
     ry="0.72124773" /><rect
     style="fill:#ff0000;fill-opacity:1;stroke-width:1.31179"
     id="rect910"
     width="268.26715"
     height="3.5"
     x="113.88313"
     y="23.08313"
     ry="0.72124773" /></svg>
