<?xml version="1.0" encoding="UTF-8" standalone="no"?><!DOCTYPE svg PUBLIC "-//W3C//DTD SVG 1.1//EN" "http://www.w3.org/Graphics/SVG/1.1/DTD/svg11.dtd"><svg width="100%" height="100%" viewBox="0 0 500 500" version="1.1" xmlns="http://www.w3.org/2000/svg" xmlns:xlink="http://www.w3.org/1999/xlink" xml:space="preserve" xmlns:serif="http://www.serif.com/" style="fill-rule:evenodd;clip-rule:evenodd;stroke-linejoin:round;stroke-miterlimit:2;"><g id="Layer2"><g id="Layer1"></g><path d="M10,490l0,-480l480,0l0,480l-480,-0Zm371.257,-6.464l-0,-7.387l8.329,0l-0,-10.618l34.705,-0l41.184,-41.091l-0,-34.626l10.643,-0l-0,-8.311l7.404,0l-0,-263.006l-7.404,-0l-0,-8.311l-10.643,0l-0,-34.626l-41.184,-41.091l-34.705,0l-0,-10.618l-8.329,-0l-0,-7.387l-262.514,-0l0,7.387l-8.329,-0l0,10.618l-34.705,0l-41.184,41.091l0,34.626l-10.643,0l0,8.311l-7.404,-0l0,263.006l7.404,0l0,8.311l10.643,-0l0,34.626l41.184,41.091l34.705,-0l0,10.618l8.329,0l0,7.387l262.514,0Zm-349.012,-15.731c4.239,4.229 7.276,9.659 8.552,15.731l-7.172,0c-1.139,-4.148 -3.348,-7.857 -6.31,-10.812c-2.962,-2.955 -6.679,-5.159 -10.837,-6.295l0,-7.156c6.087,1.273 11.529,4.303 15.767,8.532Zm9.326,10.191l69.306,0l-0,5.54l-67.719,0c-0.372,-1.909 -0.906,-3.762 -1.587,-5.54Zm426.184,-10.191c-4.239,4.229 -7.276,9.659 -8.552,15.731l7.172,0c1.139,-4.148 3.348,-7.857 6.31,-10.812c2.962,-2.955 6.679,-5.159 10.837,-6.295l-0,-7.156c-6.087,1.273 -11.529,4.303 -15.767,8.532Zm-9.326,10.191l-69.306,0l0,5.54l67.719,0c0.372,-1.909 0.906,-3.762 1.587,-5.54Zm-422.589,-9.695l66.245,-0l-0,7.848l-61.285,0c-1.29,-2.849 -2.966,-5.488 -4.96,-7.848Zm428.32,-0l-66.245,-0l0,7.848l61.285,0c1.29,-2.849 2.966,-5.488 4.96,-7.848Zm-397.495,-2.77l-32.14,-32.067l0,-4.683l36.833,36.75l-4.693,-0Zm366.67,-0l32.14,-32.067l-0,-4.683l-36.833,36.75l4.693,-0Zm-401.586,-1.312l-0,-66.095l-7.867,0l0,61.146c2.856,1.287 5.5,2.959 7.867,4.949Zm436.502,-0l0,-66.095l7.867,0l-0,61.146c-2.856,1.287 -5.5,2.959 -7.867,4.949Zm-446.22,-5.718l0,-69.149l-5.553,0l0,67.565c1.914,0.372 3.771,0.904 5.553,1.584Zm455.938,-0l-0,-69.149l5.553,0l-0,67.565c-1.914,0.372 -3.771,0.904 -5.553,1.584Zm-455.938,-417.002l0,69.149l-5.553,-0l0,-67.565c1.914,-0.372 3.771,-0.904 5.553,-1.584Zm455.938,0l-0,69.149l5.553,-0l-0,-67.565c-1.914,-0.372 -3.771,-0.904 -5.553,-1.584Zm-446.22,-5.718l-0,66.095l-7.867,-0l0,-61.146c2.856,-1.287 5.5,-2.959 7.867,-4.949Zm436.502,0l0,66.095l7.867,-0l-0,-61.146c-2.856,-1.287 -5.5,-2.959 -7.867,-4.949Zm-401.586,-1.312l-32.14,32.067l0,4.683l36.833,-36.75l-4.693,0Zm366.67,0l32.14,32.067l-0,4.683l-36.833,-36.75l4.693,0Zm-401.09,-2.274c4.239,-4.229 7.276,-9.659 8.552,-15.731l-7.172,-0c-1.139,4.148 -3.348,7.857 -6.31,10.812c-2.962,2.955 -6.679,5.159 -10.837,6.295l0,7.156c6.087,-1.273 11.529,-4.303 15.767,-8.532Zm435.51,-0c-4.239,-4.229 -7.276,-9.659 -8.552,-15.731l7.172,-0c1.139,4.148 3.348,7.857 6.31,10.812c2.962,2.955 6.679,5.159 10.837,6.295l-0,7.156c-6.087,-1.273 -11.529,-4.303 -15.767,-8.532Zm-431.915,-0.496l66.245,0l-0,-7.848l-61.285,-0c-1.29,2.849 -2.966,5.488 -4.96,7.848Zm428.32,0l-66.245,0l0,-7.848l61.285,-0c1.29,2.849 2.966,5.488 4.96,7.848Zm-422.589,-9.695l69.306,-0l-0,-5.54l-67.719,-0c-0.372,1.909 -0.906,3.762 -1.587,5.54Zm416.858,-0l-69.306,-0l0,-5.54l67.719,-0c0.372,1.909 0.906,3.762 1.587,5.54Z" style="fill:#fbfeeb;"/></g></svg>